name Walk6.mot
datacolumns 19
datarows 22
range 2.52000000 2.62500000
endheader

                time	   L_ground_force_vx	   L_ground_force_vy	   L_ground_force_vz	   L_ground_force_px	   L_ground_force_py	   L_ground_force_pz	   R_ground_force_vx	   R_ground_force_vy	   R_ground_force_vz	   R_ground_force_px	   R_ground_force_py	   R_ground_force_pz	   L_ground_torque_x	   L_ground_torque_y	   L_ground_torque_z	   R_ground_torque_x	   R_ground_torque_y	   R_ground_torque_z	
          2.52000000	         24.49486186	        740.12112725	         60.38750829	         -0.37880594	          0.00000000	         -0.09034411	          0.00198435	          0.08607980	          0.01729845	          0.00003862	          0.00000000	          0.00006345	          0.00000000	          0.23401166	          0.00000000	          0.00000000	         -0.00204723	          0.00000000	
          2.52500000	         26.55767980	        742.86671575	         61.36180651	         -0.37722814	          0.00000000	         -0.09057557	          0.00043213	          0.12945902	          0.02268877	          0.00005312	          0.00000000	          0.00008529	          0.00000000	          0.28348917	          0.00000000	          0.00000000	         -0.00224514	          0.00000000	
          2.53000000	         28.61770668	        745.60405086	         62.38943836	         -0.37556385	          0.00000000	         -0.09081430	         -0.00204167	          0.18113778	          0.02829618	          0.00006917	          0.00000000	          0.00010883	          0.00000000	          0.33498849	          0.00000000	          0.00000000	         -0.00227687	          0.00000000	
          2.53500000	         30.67414984	        748.33328894	         63.44853596	         -0.37381542	          0.00000000	         -0.09105640	         -0.00564748	          0.23938520	          0.03355054	          0.00008568	          0.00000000	          0.00013211	          0.00000000	          0.38762297	          0.00000000	          0.00000000	         -0.00204554	          0.00000000	
          2.54000000	         32.72156785	        751.05305875	         64.51771536	         -0.37198600	          0.00000000	         -0.09129884	         -0.01057380	          0.30069214	          0.03760637	          0.00010086	          0.00000000	          0.00015213	          0.00000000	          0.44073619	          0.00000000	          0.00000000	         -0.00143255	          0.00000000	
          2.54500000	         34.75028475	        753.76263362	         65.57635507	         -0.37007978	          0.00000000	         -0.09153854	         -0.01695175	          0.35920915	          0.03929301	          0.00011208	          0.00000000	          0.00016458	          0.00000000	          0.49372662	          0.00000000	          0.00000000	         -0.00029999	          0.00000000	
          2.55000000	         36.74747500	        756.46249480	         66.60618923	         -0.36810241	          0.00000000	         -0.09177343	         -0.02480678	          0.40615881	          0.03707720	          0.00011577	          0.00000000	          0.00016369	          0.00000000	          0.54582714	          0.00000000	          0.00000000	          0.00150311	          0.00000000	
          2.55500000	         38.69957689	        759.15450882	         67.59192236	         -0.36606087	          0.00000000	         -0.09200347	         -0.03399639	          0.42928038	          0.02904925	          0.00010723	          0.00000000	          0.00014213	          0.00000000	          0.59600222	          0.00000000	          0.00000000	          0.00412944	          0.00000000	
          2.56000000	         40.59489525	        761.84341112	         68.52229280	         -0.36396190	          0.00000000	         -0.09222854	         -0.04413376	          0.41239335	          0.01294804	          0.00008070	          0.00000000	          0.00009097	          0.00000000	          0.64371456	          0.00000000	          0.00000000	          0.00771561	          0.00000000	
          2.56500000	         42.42385803	        764.53794448	         69.39062348	         -0.36181241	          0.00000000	         -0.09244763	         -0.05449883	          0.33520039	         -0.01375672	          0.00002937	          0.00000000	         -0.00000002	          0.00000000	          0.68891538	          0.00000000	          0.00000000	          0.01235627	          0.00000000	
          2.57000000	         44.17932157	        767.25282160	         70.19487257	         -0.35961900	          0.00000000	         -0.09265903	         -0.06394069	          0.17348762	         -0.05370299	         -0.00005430	          0.00000000	         -0.00014192	          0.00000000	          0.73203401	          0.00000000	          0.00000000	          0.01806893	          0.00000000	
          2.57500000	         45.85730309	        770.00710734	         70.93655753	         -0.35738780	          0.00000000	         -0.09286066	         -0.07077845	         -0.10007988	         -0.10937131	         -0.00017806	          0.00000000	         -0.00034568	          0.00000000	          0.77410525	          0.00000000	          0.00000000	          0.02474875	          0.00000000	
          2.58000000	         47.45757208	        772.82234930	         71.61968651	         -0.35512508	          0.00000000	         -0.09305058	         -0.07271213	         -0.51433283	         -0.18269079	         -0.00034910	          0.00000000	         -0.00062078	          0.00000000	          0.81641971	          0.00000000	          0.00000000	          0.03211289	          0.00000000	
          2.58500000	         48.98416209	        775.72373706	         72.25049831	         -0.35283836	          0.00000000	         -0.09322829	         -0.06676004	         -1.09687879	         -0.27449281	         -0.00057276	          0.00000000	         -0.00097322	          0.00000000	          0.86014567	          0.00000000	          0.00000000	          0.03963597	          0.00000000	
          2.59000000	         50.44709775	        778.74000159	         72.83686925	         -0.35053905	          0.00000000	         -0.09339363	         -0.04924508	         -1.87001319	         -0.38379434	         -0.00085090	          0.00000000	         -0.00140278	          0.00000000	          0.90560405	          0.00000000	          0.00000000	          0.04647908	          0.00000000	
          2.59500000	         51.86509699	        781.89941734	         73.38728254	         -0.34824302	          0.00000000	         -0.09354620	         -0.01585930	         -2.84499815	         -0.50690432	         -0.00117968	          0.00000000	         -0.00189963	          0.00000000	          0.95212823	          0.00000000	          0.00000000	          0.05141791	          0.00000000	
          2.60000000	         53.26736527	        785.23044128	         73.90975357	         -0.34596953	          0.00000000	         -0.09368528	          0.03815771	         -4.01450176	         -0.63636397	         -0.00154688	          0.00000000	         -0.00244012	          0.00000000	          0.99848756	          0.00000000	          0.00000000	          0.05277815	          0.00000000	
          2.60500000	         54.69345079	        788.76219218	         74.41161300	         -0.34373948	          0.00000000	         -0.09381016	          0.11768481	         -5.34310115	         -0.75975919	         -0.00192872	          0.00000000	         -0.00298201	          0.00000000	          1.04296417	          0.00000000	          0.00000000	          0.04839025	          0.00000000	
          2.61000000	         56.19068823	        792.52146429	         74.90025479	         -0.34157374	          0.00000000	         -0.09391964	          0.22718391	         -6.75593769	         -0.85847954	         -0.00228628	          0.00000000	         -0.00345927	          0.00000000	          1.08365353	          0.00000000	          0.00000000	          0.03557997	          0.00000000	
          2.61500000	         57.81061856	        796.52548093	         75.38335102	         -0.33949243	          0.00000000	         -0.09401184	          0.36991644	         -8.12588949	         -0.90654742	         -0.00256189	          0.00000000	         -0.00377687	          0.00000000	          1.11883340	          0.00000000	          0.00000000	          0.01121587	          0.00000000	
          2.62000000	         59.60519492	        800.77633565	         75.86824541	         -0.33751314	          0.00000000	         -0.09408412	          0.54686957	         -9.26001418	         -0.86970074	         -0.00267572	          0.00000000	         -0.00380633	          0.00000000	          1.14737170	          0.00000000	          0.00000000	         -0.02816024	          0.00000000	
          2.62500000	         61.62278243	        805.25671722	         76.36153172	         -0.33564995	          0.00000000	         -0.09413438	          0.75536231	         -9.88652544	         -0.70498426	         -0.00252324	          0.00000000	         -0.00338285	          0.00000000	          1.16865431	          0.00000000	          0.00000000	         -0.08608960	          0.00000000	
